<svg version="1" xmlns="http://www.w3.org/2000/svg" width="682.667" height="682.667" viewBox="0 0 512.000000 512.000000"><path d="M11 255v244h488V11H11v244zM386.6 81.8c2.7 1.4 6.3 9.7 7.5 17.1.5 3.1 2.9 12.3 5.4 20.6 2.5 8.2 4.5 15.7 4.5 16.6 0 .9 2.1 8.8 4.6 17.5 2.6 8.8 5.4 19.3 6.4 23.4.9 4.1 3.1 12.2 4.8 18 4.4 14.8 4.8 16.4 7.2 26.4 2 8.3 7 22.8 10.7 30.6l1.6 3.5.8-4c.4-2.2.8-40.3.8-84.6.1-75.3.2-80.8 1.9-82.8 1.6-2.1 2.5-2.2 18.7-2.3 18.2-.1 21.1.3 21.9 3 1.2 3.7 1.5 42.6 1.7 181.2.1 79.5-.1 147.6-.5 151.3-.6 5.1-1.3 7-2.7 7.8-3 1.6-43.2 1.7-45.1.1-1.8-1.5-7.6-19.2-19.3-59.2-4.7-16.2-10.1-34-12-39.5-1.8-5.5-4.5-14.3-5.9-19.5-1.4-5.2-3.9-13.4-5.6-18.2-1.6-4.9-3-9.4-3-10.1 0-3.9-8.5-25.7-10-25.7-.4 0-1.1 1-1.6 2.2-.4 1.3-1.1 39.3-1.4 84.5-.5 77.2-.6 82.3-2.3 84-1.3 1.3-3.9 1.9-10 2.3-12 .7-28.4-.2-29.9-1.8-1.1-1.1-1.4-33.3-1.6-169.5-.1-92.5 0-169.2.3-170.5.3-1.3 1.6-2.7 2.8-3.2 3.1-1.4 46.6-.7 49.3.8zm-270.5 3.8c21.1 4.2 35.6 16.2 45 36.9 4 9 7.7 26.1 8.5 40 .6 10.8.5 12.2-1.1 13.5-2.5 2.1-40 2.4-43.1.4-1.6-1-2.5-3-3.3-8-2.1-11.9-6.1-18.6-14-23.2-4.2-2.5-5.5-2.7-14.1-2.6-11.5.2-16.1 2.1-21.3 8.8-6.3 8.4-7.4 26.2-2 36.4 1.3 2.6 5.5 7.8 9.1 11.5 6.5 6.6 10.6 9.4 32.2 22.2 28 16.5 41.1 28.8 51.8 48.5 7.7 14.3 10.8 30.5 11.1 59 .4 35.8-10.5 65.9-30 82.9-7.5 6.5-11.9 9.1-23.3 13.6l-7 2.8-19.8-.7c-12-.4-22-1.3-25.5-2.2-18.3-4.7-37.8-24.2-44.6-44.4-3.8-11.5-7.6-31.9-7.7-41.1 0-8 .7-8.4 17.7-8.7 24.8-.6 31.3.9 31.3 7.2 0 1.3 1.6 5.5 3.6 9.4 5.9 12 14.3 17.2 27.3 17.2 11.1-.1 18.8-4.7 23.9-14.5 2.4-4.5 2.7-6.1 2.7-16 0-10-.3-11.6-2.8-17-3.8-8.1-10.9-15.1-24.2-23.7C62 271.5 59.7 269.7 46 256c-11.8-11.7-16.9-19.6-22-34-7.2-20.2-7.9-56.4-1.5-80.3 3.5-13.2 13.6-30.8 22.4-39 10.7-10 25.9-17.2 39.6-18.7 8.6-.9 22.8-.2 31.6 1.6zM264.9 150c4 .5 12 2.6 17.6 4.5 5.7 1.9 11 3.5 11.9 3.5.8 0 3.8-2 6.6-4.5s5.7-4.5 6.5-4.5c2 0 5.3 3.5 6 6.2 2.8 12.3 5.8 28.3 7 37.6 1.9 14.4 1.2 16.5-5.5 17-6.2.5-39.5-4.2-43.8-6.1-2.9-1.3-3.7-4.7-2.2-9.2 2.9-8.7-1.4-10.9-20-10.3-9.5.3-12.6.8-17.8 3-8.5 3.5-16 8.2-23.3 14.5-8.5 7.5-10.5 7.3-19.1-1.5-8.1-8.1-9.4-10.9-7.3-15.9 3.7-8.8 21.5-22.3 39.1-29.5 13.4-5.5 27.1-7 44.3-4.8zM215 278.3c18.5 3.1 19.5 3.4 20.9 5.9 1.4 2.4 1.3 3.1-.9 7.7-2.1 4.6-2.2 5.3-.9 6.7 2.2 2.1 14.1 3.7 22.9 3.1 12.9-.9 23.5-5.9 36.6-17.4 3.5-3 7.1-5.3 8.4-5.3 2.5 0 9.1 5.3 13.8 11.2 4.9 6.2 4.5 10.1-1.9 17.8-11.8 14.2-29.8 24.1-50.7 28.1-12.3 2.3-35.6-1.1-46.9-6.9-2.3-1.2-4.7-2.2-5.3-2.2-.7 0-3.6 2.5-6.5 5.5-5.8 6-7.7 6.7-10 3.2-2.6-4.1-10.4-42.5-10.6-52.7-.3-9.3 1.4-9.6 31.1-4.7z"/></svg>